<svg width="1200" height="630" viewBox="0 0 1200 630" fill="none" xmlns="http://www.w3.org/2000/svg">
  <rect width="1200" height="630" rx="32" fill="#F4F6F8"/>
  <rect x="44" y="44" width="1112" height="542" rx="28" fill="#FFFFFF"/>
  <rect x="84" y="84" width="264" height="34" rx="17" fill="#D8F4E5"/>
  <rect x="84" y="146" width="548" height="40" rx="14" fill="#18222D"/>
  <rect x="84" y="202" width="476" height="22" rx="11" fill="#A5B2BF"/>
  <rect x="84" y="262" width="496" height="226" rx="22" fill="#F4F6F8"/>
  <rect x="112" y="294" width="164" height="14" rx="7" fill="#0E7490"/>
  <rect x="112" y="334" width="420" height="18" rx="9" fill="#253547"/>
  <rect x="112" y="370" width="392" height="18" rx="9" fill="#253547"/>
  <rect x="112" y="406" width="360" height="18" rx="9" fill="#253547"/>
  <rect x="112" y="448" width="152" height="14" rx="7" fill="#94A3B8"/>
  <rect x="630" y="146" width="440" height="342" rx="24" fill="#0F172A"/>
  <rect x="662" y="182" width="120" height="14" rx="7" fill="#7DD3FC"/>
  <rect x="662" y="228" width="138" height="110" rx="16" fill="#E2E8F0"/>
  <rect x="818" y="228" width="138" height="110" rx="16" fill="#FEF08A"/>
  <rect x="974" y="228" width="64" height="110" rx="16" fill="#FCA5A5"/>
  <rect x="662" y="362" width="376" height="18" rx="9" fill="#E2E8F0"/>
  <rect x="662" y="398" width="324" height="18" rx="9" fill="#CBD5E1"/>
  <rect x="662" y="434" width="280" height="18" rx="9" fill="#CBD5E1"/>
  <rect x="84" y="520" width="180" height="18" rx="9" fill="#0F766E"/>
  <circle cx="1036" cy="106" r="34" fill="#ECFEFF"/>
  <path d="M1024 106H1048" stroke="#0E7490" stroke-width="8" stroke-linecap="round"/>
  <path d="M1036 94V118" stroke="#0E7490" stroke-width="8" stroke-linecap="round"/>
</svg>
